<svg width="296" height="99" viewBox="0 0 296 99" fill="none" xmlns="http://www.w3.org/2000/svg">
<g clip-path="url(#clip0_1_5981)">
<path fill-rule="evenodd" clip-rule="evenodd" d="M284.754 33.2499L276.806 23.9059C276.406 23.4369 276.526 22.7801 277.089 22.4517C277.09 22.4511 277.091 22.4505 277.092 22.4498C277.59 22.1649 278.287 22.27 278.644 22.6907L286.206 31.5805C287.774 29.769 293.796 22.8049 293.896 22.6892C294.256 22.2678 294.954 22.1635 295.453 22.4607C296.014 22.7925 296.132 23.4415 295.735 23.913C295.733 23.9147 295.732 23.9163 295.73 23.9179L287.641 33.2597L295.593 42.5994C295.594 42.6 295.594 42.6006 295.595 42.6012C295.993 43.0729 295.874 43.7227 295.313 44.054C295.304 44.0589 295.295 44.0644 295.286 44.0686C295.094 44.1681 294.886 44.2218 294.679 44.2218C294.318 44.2218 293.977 44.0741 293.757 43.8191C293.756 43.8185 293.756 43.8173 293.755 43.8167L286.192 34.9352L278.492 43.827C278.49 43.8295 278.487 43.8325 278.485 43.8356C278.266 44.0778 277.94 44.2218 277.58 44.2218C277.368 44.2218 277.14 44.1626 276.958 44.0607C276.956 44.0595 276.954 44.0589 276.952 44.0577C276.375 43.727 276.268 43.0625 276.664 42.5921C276.666 42.5908 276.667 42.589 276.669 42.5872L284.754 33.2499ZM286.536 34.538L286.532 34.5428C286.533 34.541 286.535 34.5398 286.536 34.5386V34.538ZM285.849 34.538C285.858 34.5471 285.867 34.5563 285.876 34.5648L285.851 34.5355L285.849 34.538ZM284.997 33.5361C285.007 33.5477 285.017 33.5599 285.028 33.5709C285.021 33.5629 285.013 33.5544 285.005 33.5458L284.997 33.5361ZM284.997 32.9692L285.008 32.9564C285.023 32.94 285.037 32.9247 285.054 32.9101C285.033 32.929 285.014 32.9485 284.997 32.9692ZM287.403 33.5349L287.391 33.5489C287.384 33.5568 287.378 33.5641 287.37 33.5709C287.382 33.5593 287.393 33.5471 287.403 33.5349ZM262.542 44.2218C256.234 44.2218 251.107 39.2832 251.107 33.2078C251.107 27.1325 256.234 22.1935 262.542 22.1935C268.85 22.1935 273.977 27.1325 273.977 33.2078C273.977 39.2832 268.85 44.2218 262.542 44.2218ZM262.542 24.3126C257.453 24.3126 253.307 28.3058 253.307 33.2078C253.307 38.1092 257.453 42.1045 262.542 42.1045C267.63 42.1045 271.768 38.1092 271.768 33.2078C271.768 28.3058 267.63 24.3126 262.542 24.3126ZM226.449 44.2218C225.847 44.2218 225.345 43.752 225.345 43.1565V13.2964C225.345 12.7176 225.846 12.2334 226.449 12.2334C227.051 12.2334 227.553 12.7176 227.553 13.2964V26.5833C229.634 23.8482 232.997 22.065 236.78 22.065C243.087 22.065 248.214 27.0037 248.214 33.0791C248.214 39.1569 243.087 44.0955 236.78 44.0955C232.997 44.0955 229.635 42.3187 227.553 39.5797V43.1565C227.553 43.752 227.051 44.2218 226.449 44.2218ZM236.78 24.1932C231.734 24.1932 227.612 28.1142 227.553 32.965C227.553 32.965 227.553 33.1956 227.553 33.1968C227.614 38.047 231.734 41.9764 236.78 41.9764C241.876 41.9764 246.015 37.989 246.015 33.0791C246.015 28.1795 241.876 24.1932 236.78 24.1932ZM219.316 44.2194C218.713 44.2194 218.211 43.7526 218.211 43.1565V29.6555C218.211 26.5723 215.61 24.0579 212.4 24.0579C209.189 24.0579 206.579 26.5723 206.579 29.6555V42.9874C206.579 43.572 206.087 44.0528 205.484 44.0528C204.865 44.0528 204.379 43.5701 204.379 42.9874V29.6555C204.379 26.5723 201.769 24.0579 198.558 24.0579C195.356 24.0579 192.746 26.5723 192.746 29.6555V42.9874C192.746 43.5701 192.245 44.0528 191.642 44.0528C191.041 44.0528 190.538 43.5701 190.538 42.9874V22.995C190.538 22.4124 191.041 21.9298 191.642 21.9298C192.245 21.9298 192.746 22.4124 192.746 22.995V24.3421C194.209 22.8587 196.276 21.9298 198.558 21.9298C201.508 21.9298 204.084 23.4707 205.482 25.7541C206.873 23.4708 209.451 21.9298 212.4 21.9298C216.821 21.9298 220.42 25.3972 220.42 29.6555V43.1565C220.42 43.7526 219.935 44.2194 219.316 44.2194ZM180.799 24.227C177.589 24.227 174.987 26.742 174.987 29.8336V43.1589C174.987 43.7544 174.485 44.2218 173.883 44.2218C173.264 44.2218 172.778 43.7544 172.778 43.1589V23.164C172.778 22.5792 173.262 22.1079 173.883 22.1079C174.487 22.1079 174.987 22.5792 174.987 23.164C174.987 23.164 174.987 24.5158 174.987 24.5157C176.447 23.0304 178.509 22.1079 180.799 22.1079C183.08 22.1079 185.117 22.976 186.919 24.2669C187.405 24.6102 187.508 25.2733 187.156 25.7413C187.155 25.7419 187.154 25.7425 187.154 25.7431C186.785 26.2282 186.097 26.3209 185.608 25.967C184.181 24.9578 182.578 24.227 180.799 24.227ZM157.217 44.2218C150.909 44.2218 145.782 39.2832 145.782 33.2078C145.782 27.1325 150.909 22.1935 157.217 22.1935C163.525 22.1935 168.652 27.1325 168.652 33.2078C168.652 33.7856 168.166 34.2725 167.547 34.2725H148.049C148.602 38.6718 152.501 42.1045 157.217 42.1045C160.504 42.1045 163.568 40.393 165.212 37.6565C165.515 37.1421 166.186 36.9639 166.723 37.2703C167.238 37.5589 167.426 38.1983 167.126 38.7145C167.125 38.7163 167.124 38.7188 167.122 38.7206C165.081 42.1137 161.291 44.2218 157.217 44.2218ZM148.049 32.1449H166.386C165.841 27.7377 161.933 24.3126 157.217 24.3126C152.501 24.3126 148.602 27.7383 148.049 32.1449ZM140.382 44.2218C139.779 44.2218 139.287 43.7538 139.287 43.1565V39.576C137.202 42.3175 133.844 44.0955 130.052 44.0955C123.744 44.0955 118.617 39.1569 118.617 33.0791C118.617 27.0037 123.744 22.065 130.052 22.065C133.843 22.065 137.201 23.8492 139.286 26.5858L139.278 13.2967V13.2964C139.278 12.7175 139.78 12.2334 140.382 12.2334C141.002 12.2334 141.487 12.7176 141.487 13.2964V43.1565C141.487 43.752 141.001 44.2218 140.382 44.2218ZM130.052 41.9764C135.106 41.9764 139.219 38.0464 139.287 33.195C139.287 33.195 139.287 32.9656 139.287 32.9644C139.219 28.1136 135.106 24.1932 130.052 24.1932C124.964 24.1932 120.825 28.1801 120.825 33.0791C120.825 37.989 124.964 41.9764 130.052 41.9764Z" fill="#0A4164"/>
<path fill-rule="evenodd" clip-rule="evenodd" d="M6.05166 11.2468C6.36871 10.703 7.15038 10.347 8.35097 10.6832C9.6163 11.0391 11.2891 12.1464 11.3929 13.0462C11.7442 16.1312 10.1561 18.7119 8.70229 24.427C7.42363 29.4598 7.06849 33.0195 7.73306 34.8882C16.7541 7.84536 25.0078 7.19274 27.4738 7.66735C31.4288 8.4386 30.4871 19.8885 30.1777 22.2121C34.9391 14.0053 39.9671 8.98244 43.7155 5.70961C50.8429 -0.519649 55.5406 -0.144003 56.9725 0.182291C63.7343 1.73466 61.4569 16.418 58.2588 26.7111C55.0569 36.9943 53.8601 41.0384 53.2241 44.3311C52.8547 46.2493 51.4865 51.5094 54.0734 52.6465C58.5149 54.6043 68.4671 35.2343 68.5519 32.6239C68.8223 24.1502 72.1127 19.2261 73.9779 18.0791C75.346 17.2387 78.0956 19.3645 78.6145 20.7191C79.023 21.7771 77.552 23.8436 76.6999 25.4058C75.943 26.7901 75.1927 28.1349 74.6491 29.9048C73.3171 34.2356 72.9867 37.4689 74.969 38.8433C78.2632 41.1472 87.0815 28.6984 87.3624 25.3564C87.469 24.0907 86.9892 22.5385 87.3272 21.5794C87.9698 19.77 91.6192 21.3322 92.3695 22.756C94.3127 26.4342 94.4088 40.8407 94.4479 41.8987C99.3797 37.1625 103.17 32.1197 106.13 28.4711C106.912 27.512 108.756 28.9159 108.305 29.5487C105.967 32.8512 95.1934 44.7561 94.6431 45.2308C95.837 70.2368 85.8209 84.1587 82.1859 89.2904C69.3307 104.379 62.0814 98.3574 59.2575 93.6904C55.7005 87.827 58.3968 79.3631 62.3128 72.9262C64.615 69.1294 69.3126 63.889 74.2587 59.1824C80.135 53.586 86.3075 48.6815 88.4144 46.9413C88.6172 41.0482 88.7515 34.8585 88.1193 29.1335C81.8479 41.1273 77.7443 41.8293 76.5504 42.1754C70.8512 42.9763 69.6182 37.6468 69.5011 36.9744C67.0495 43.7574 63.7409 49.2253 61.1684 52.5476C58.6748 55.7611 54.7484 56.8587 52.4243 55.8402C45.6026 52.8542 44.3058 42.9665 51.536 24.5457C58.7634 6.13483 58.4501 2.74329 55.5901 2.24891C53.3841 1.87318 50.8534 3.19819 48.9711 4.53303C44.6819 7.55867 43.726 9.14074 40.8555 12.2356C37.1528 16.2203 32.1324 23.893 30.391 30.2903C29.4284 33.84 29.4037 36.7668 27.9041 37.7655C27.2148 38.2302 25.3135 38.5368 23.7501 36.8658C22.5495 35.5804 22.0021 33.0591 22.0697 29.4995C22.1658 24.5853 25.1649 13.7384 25.4306 12.8584C25.701 11.9883 26.0104 10.6238 24.7413 10.7029C23.0465 10.8117 20.5949 13.3825 18.5269 17.0904C17.2054 19.4634 16.1362 22.0539 14.9566 25.1092C14.2701 26.8988 12.3698 31.9911 11.5919 34.3939C10.6217 37.3898 10.2409 40.0495 8.8232 41.7206C7.72258 43.0159 6.20495 43.362 4.86916 42.7984C-5.41346 38.4973 3.36961 15.7952 6.05166 11.2468ZM88.1193 50.4416C88.1193 50.4416 55.6538 76.1596 62.487 90.833C63.5353 93.0874 65.9441 96.6074 71.4091 92.5237C73.9426 90.3781 87.6499 80.5991 88.1193 50.4416Z" fill="#60B0C4"/>
</g>
<defs>
<clipPath id="clip0_1_5981">
<rect width="296" height="99" fill="white"/>
</clipPath>
</defs>
</svg>
