<svg width="16" height="16" viewBox="0 0 16 16" fill="none" xmlns="http://www.w3.org/2000/svg">
<g id="Checkbox">
<path id="Vector" d="M5.86867 12.798L6.22222 13.1516L6.57578 12.798L14.5758 4.798L14.9281 4.44569L14.577 4.09214L13.3237 2.82992L12.9701 2.47386L12.6153 2.82867L6.22173 9.22228L3.38417 6.39262L3.03062 6.04005L2.67756 6.39311L1.42422 7.64645L1.07067 8L1.42422 8.35355L5.86867 12.798ZM1.77778 0.5H14.2222C14.9311 0.5 15.5 1.07451 15.5 1.77778V14.2222C15.5 14.9255 14.9311 15.5 14.2222 15.5H1.77778C1.06888 15.5 0.5 14.9255 0.5 14.2222V1.77778C0.5 1.07451 1.06888 0.5 1.77778 0.5Z" fill="#0A4164" stroke="#0A4164"/>
</g>
</svg>
