<svg width="20" height="20" viewBox="0 0 20 20" fill="none" xmlns="http://www.w3.org/2000/svg">
<g id="Group">
<path id="Vector" d="M2.90179 2.94643C4.86608 0.982133 7.23213 0 10 0C12.7679 0 15.1265 0.974692 17.0759 2.92411C19.0253 4.87352 20 7.23213 20 10C20 12.7679 19.0253 15.1265 17.0759 17.0759C15.1265 19.0253 12.7679 20 10 20C7.23213 20 4.87352 19.0253 2.92411 17.0759C0.974692 15.1265 0 12.7679 0 10C0 7.23213 0.967252 4.88096 2.90179 2.94643ZM10.8929 14.5982C10.9226 14.2113 10.811 13.8839 10.558 13.6161C10.3051 13.3482 9.98512 13.2143 9.59821 13.2143C9.24107 13.2143 8.92857 13.3333 8.66071 13.5714C8.39286 13.8095 8.25893 14.122 8.25893 14.5089C8.25893 14.8958 8.37797 15.2158 8.61607 15.4688C8.85417 15.7217 9.15178 15.8482 9.50893 15.8482C9.89584 15.8482 10.2232 15.7366 10.4911 15.5134C10.7589 15.2902 10.8929 14.9851 10.8929 14.5982ZM13.0804 8.88393C13.4375 8.37797 13.6161 7.84226 13.6161 7.27679C13.6161 6.29464 13.2441 5.52084 12.5 4.95536C11.7857 4.41964 10.8631 4.15179 9.73214 4.15179C8.89881 4.15179 8.19941 4.34524 7.63393 4.73214C6.80059 5.29762 6.38393 6.30952 6.38393 7.76786H8.57143C8.57143 7.14285 8.63095 6.74107 8.75 6.5625C9.01786 6.11607 9.40476 5.89286 9.91071 5.89286C10.4167 5.89286 10.7887 6.05655 11.0268 6.38393C11.2649 6.71131 11.3839 7.05357 11.3839 7.41071C11.3839 7.64881 11.2649 7.94643 11.0268 8.30357C10.9673 8.42262 10.8185 8.57143 10.5804 8.75C9.80654 9.19643 9.28572 9.64285 9.01786 10.0893C8.77976 10.4762 8.63095 11.0863 8.57143 11.9196C8.57143 12.0387 8.63095 12.0982 8.75 12.0982H10.4911C10.6399 12.0982 10.7143 12.0387 10.7143 11.9196C10.7143 11.5923 10.744 11.3095 10.8036 11.0714C10.8929 10.8036 11.0714 10.5506 11.3393 10.3125L11.9643 9.91071C12.5298 9.49405 12.9018 9.15179 13.0804 8.88393Z" fill="#0A4164"/>
</g>
</svg>
