<svg width="20" height="20" viewBox="0 0 20 20" fill="none" xmlns="http://www.w3.org/2000/svg">
<g id="Radio Button=Selected" clip-path="url(#clip0_1112_3294)">
<path id="Vector" d="M10 5.83341C7.70002 5.83341 5.83335 7.70008 5.83335 10.0001C5.83335 12.3001 7.70002 14.1667 10 14.1667C12.3 14.1667 14.1667 12.3001 14.1667 10.0001C14.1667 7.70008 12.3 5.83341 10 5.83341ZM10 1.66675C5.40002 1.66675 1.66669 5.40008 1.66669 10.0001C1.66669 14.6001 5.40002 18.3334 10 18.3334C14.6 18.3334 18.3334 14.6001 18.3334 10.0001C18.3334 5.40008 14.6 1.66675 10 1.66675ZM10 16.6667C6.31669 16.6667 3.33335 13.6834 3.33335 10.0001C3.33335 6.31675 6.31669 3.33341 10 3.33341C13.6834 3.33341 16.6667 6.31675 16.6667 10.0001C16.6667 13.6834 13.6834 16.6667 10 16.6667Z" fill="#0A4164"/>
<path id="Vector_2" d="M10 5.83341C7.70002 5.83341 5.83335 7.70008 5.83335 10.0001C5.83335 12.3001 7.70002 14.1667 10 14.1667C12.3 14.1667 14.1667 12.3001 14.1667 10.0001C14.1667 7.70008 12.3 5.83341 10 5.83341ZM10 1.66675C5.40002 1.66675 1.66669 5.40008 1.66669 10.0001C1.66669 14.6001 5.40002 18.3334 10 18.3334C14.6 18.3334 18.3334 14.6001 18.3334 10.0001C18.3334 5.40008 14.6 1.66675 10 1.66675ZM10 16.6667C6.31669 16.6667 3.33335 13.6834 3.33335 10.0001C3.33335 6.31675 6.31669 3.33341 10 3.33341C13.6834 3.33341 16.6667 6.31675 16.6667 10.0001C16.6667 13.6834 13.6834 16.6667 10 16.6667Z" fill="#0A4164"/>
</g>
<defs>
<clipPath id="clip0_1112_3294">
<rect width="20" height="20" fill="white"/>
</clipPath>
</defs>
</svg>
